<svg width="24" height="24" viewBox="0 0 24 24" fill="none" xmlns="http://www.w3.org/2000/svg">
<path d="M12 24C18.6274 24 24 18.6274 24 12C24 5.37258 18.6274 0 12 0C5.37258 0 0 5.37258 0 12C0 18.6274 5.37258 24 12 24Z" fill="#F0F0F0"/>
<path d="M2.48058 4.69434C1.53797 5.92073 0.827205 7.33424 0.413345 8.86982H6.65606L2.48058 4.69434Z" fill="#0052B4"/>
<path d="M23.5866 8.86977C23.1727 7.33424 22.4619 5.92073 21.5193 4.69434L17.3439 8.86977H23.5866Z" fill="#0052B4"/>
<path d="M0.413345 15.1309C0.827252 16.6664 1.53802 18.0799 2.48058 19.3063L6.65592 15.1309H0.413345Z" fill="#0052B4"/>
<path d="M19.3058 2.48134C18.0794 1.53873 16.6659 0.827969 15.1304 0.414062V6.65673L19.3058 2.48134Z" fill="#0052B4"/>
<path d="M4.69412 21.5201C5.92051 22.4627 7.33403 23.1734 8.86956 23.5874V17.3447L4.69412 21.5201Z" fill="#0052B4"/>
<path d="M8.86951 0.414062C7.33398 0.827969 5.92047 1.53873 4.69412 2.4813L8.86951 6.65669V0.414062Z" fill="#0052B4"/>
<path d="M15.1304 23.5874C16.6659 23.1734 18.0795 22.4627 19.3058 21.5201L15.1304 17.3447V23.5874Z" fill="#0052B4"/>
<path d="M17.3439 15.1309L21.5193 19.3063C22.4619 18.08 23.1727 16.6664 23.5866 15.1309H17.3439Z" fill="#0052B4"/>
<path d="M23.8984 10.4348H13.5653H13.5653V0.101578C13.0529 0.034875 12.5305 0 12 0C11.4694 0 10.9471 0.034875 10.4348 0.101578V10.4347V10.4347H0.101578C0.034875 10.9471 0 11.4695 0 12C0 12.5306 0.034875 13.0529 0.101578 13.5652H10.4347H10.4347V23.8984C10.9471 23.9651 11.4694 24 12 24C12.5305 24 13.0529 23.9652 13.5652 23.8984V13.5653V13.5653H23.8984C23.9651 13.0529 24 12.5306 24 12C24 11.4695 23.9651 10.9471 23.8984 10.4348Z" fill="#D80027"/>
<path d="M15.1304 15.1299L20.4853 20.4847C20.7315 20.2386 20.9665 19.9812 21.1906 19.7144L16.6062 15.1299H15.1304V15.1299Z" fill="#D80027"/>
<path d="M8.86955 15.1299H8.86946L3.51469 20.4846C3.76088 20.7309 4.01827 20.9659 4.28508 21.19L8.86955 16.6055V15.1299Z" fill="#D80027"/>
<path d="M8.86954 8.8696V8.86951L3.51473 3.51465C3.26845 3.76084 3.03351 4.01823 2.80936 4.28504L7.39387 8.86955L8.86954 8.8696Z" fill="#D80027"/>
<path d="M15.1304 8.8698L20.4853 3.5149C20.2391 3.26862 19.9817 3.03368 19.7149 2.80957L15.1304 7.39409V8.8698Z" fill="#D80027"/>
</svg>
